<?xml version="1.0" encoding="UTF-8"?><svg xmlns="http://www.w3.org/2000/svg" viewBox="0 0 333.19 192.38"><defs><style>.f{fill:#fff;}</style></defs><g id="a"/><g id="b"><g id="c"><g id="d"><polygon class="f" points="177.7 87.76 189.67 108.52 211.89 108.52 199.91 87.76 177.7 87.76"/><polygon class="f" points="111.06 87.76 99.09 108.52 76.88 108.52 88.85 87.76 111.06 87.76"/><polygon class="f" points="155.49 87.76 143.52 108.52 121.3 108.52 133.28 87.76 155.49 87.76"/><polygon class="f" points="244.34 87.76 256.31 108.52 234.1 108.52 222.13 87.76 244.34 87.76"/><g id="e"><path class="f" d="M56.98,124.75c4.74,2.3,8.34,5.56,10.81,9.76,2.47,4.2,4.87,9.11,4.87,14.72,0,2.54-.23,4.97-.7,7.31-1.2,6.81-3.79,12.88-7.76,18.22-3.97,5.34-9.01,9.53-15.12,12.56-6.11,3.04-12.86,4.55-20.27,4.55H.88L17.01,121.3h23.16c6.47,0,12.08,1.15,16.82,3.45Zm-12.25,45.15c3.8-3.17,6.24-7.62,7.31-13.36,.27-1.33,.4-2.77,.4-4.3,0-4.47-1.37-7.91-4.1-10.31-2.74-2.4-6.57-3.6-11.51-3.6h-6.71l-6.51,36.34h6.81c5.74,0,10.51-1.58,14.32-4.76Z"/><path class="f" d="M121.21,180.36h-25.03l-5.81,11.51h-20.62l41.76-70.58h22.63l9.6,70.58h-20.72l-1.8-11.51Zm-2.3-14.92l-3.5-22.93-11.61,22.93h15.12Z"/><path class="f" d="M161.56,137.87c3.87-5.44,8.74-9.68,14.62-12.71,5.87-3.04,12.53-4.55,19.48-4.55,5.81,0,10.63,1.07,14.96,3.2,4.34,2.14,7.71,5.17,10.11,9.11,2.4,3.94,3.7,8.58,3.9,13.92h-21.12c-.8-2.6-2.2-4.6-4.21-6.01s-4.47-2.1-7.41-2.1c-4.54,0-8.44,1.6-11.71,4.81-3.27,3.2-5.37,7.51-6.31,12.91-.27,1.4-.4,2.9-.4,4.51,0,4.14,1.08,7.39,3.25,9.76,2.17,2.37,5.15,3.55,8.96,3.55,2.94,0,5.66-.7,8.16-2.1,2.5-1.4,4.59-3.4,6.26-6.01h21.22c-3.2,8.08-8.24,14.47-15.12,19.17-6.88,4.71-14.72,7.06-23.53,7.06-6.07,0-11.33-1.17-15.77-3.5-4.44-2.34-7.83-5.64-10.16-9.91-2.34-4.27-3.5-9.21-3.5-14.82,0-2.6,.23-5.17,.7-7.71,1.2-6.94,3.74-13.13,7.61-18.57Z"/><path class="f" d="M261.68,121.3l-16.03,70.58h-19.72l16.13-70.58h19.62Z"/><path class="f" d="M303.52,180.36h-25.03l-5.81,11.51h-20.62l41.76-70.58h22.63l9.6,70.58h-20.72l-1.8-11.51Zm-2.3-14.92l-3.5-22.93-11.61,22.93h15.12Z"/></g><path class="f" d="M266.55,87.76l11.97,20.77h33.9c11.47,0,20.77-9.3,20.77-20.77h-66.64Z"/><path class="f" d="M57.23,76.17c42.07,0,76.17-34.1,76.17-76.17h-22.21c0,31.44-25.49,56.93-56.93,56.93-.09,0-.19,0-.28,0-.03,0-.06,0-.09,0H11.09L0,76.17H57.23Z"/><path class="f" d="M275.96,76.17c-42.07,0-76.17-34.1-76.17-76.17h22.21c0,31.44,25.49,56.93,56.93,56.93,.09,0,.19,0,.28,0,.03,0,.06,0,.09,0h42.79l11.09,19.24h-57.23Z"/><path class="f" d="M166.6,36.51c0,21.9,17.76,39.66,39.66,39.66h47.49c-42.07,0-76.17-34.1-76.17-76.17h-21.96c0,42.07-34.1,76.17-76.17,76.17h47.49c21.9,0,39.66-17.76,39.66-39.66"/><path class="f" d="M66.64,87.76l-11.97,20.77H20.77C9.3,108.52,0,99.23,0,87.76H66.64Z"/></g></g></g></svg>