<?xml version="1.0" encoding="UTF-8"?>
<svg id="Calque_2" data-name="Calque 2" xmlns="http://www.w3.org/2000/svg" viewBox="0 0 1080.2 1080.2">
  <defs>
    <style>
      .cls-1, .cls-2, .cls-3 {
        stroke-width: 0px;
      }

      .cls-2 {
        fill: #fff;
      }

      .cls-3 {
        fill: #5eb030;
      }
    </style>
  </defs>
  <g id="Frog_Studio_Website_Logo" data-name="Frog Studio Website Logo">
    <circle id="BG_Cercle" data-name="BG Cercle" class="cls-2" cx="540.1" cy="540.1" r="540.1"/>
    <g>
      <path id="Bas_du_visage" data-name="Bas du visage" class="cls-3" d="m924.07,423.57c-3.69-25.8-19.33-50.53-39.29-72.54-1.6,2.31-3.28,4.56-5.06,6.73,10.02,13.2,18.72,27.28,25.35,42.49,5.15,14.01,11.05,32.12-.7,44.34-47.03,46.56-292.72,33.1-369.26,35.42-70.38-1.98-329.38,9.4-363.07-47.58l-.92-1.56s-.54-1.68-.54-1.68c-.86-2.01-1.32-4.73-1.51-6.94-.07-22.46,10.87-41.89,25.37-58.99-2.15-2.29-4.2-4.67-6.15-7.14-14.53,15.33-25.8,32.52-30.85,51.48-3.01,12.81-2.06,23.71,3.17,33.32-1.51,2.17-2.62,4.54-3.42,7-7.74,31.12,22.03,49.89,48.68,60.03-5.73,23.24-9.05,47.23-9.33,71.37-4.19,256.4,267.82,422.84,496.47,310.37,138.92-67.98,217.28-226.44,182.25-376.77,21.74-7.8,39.33-18.85,46.53-34.84,3.69-9.73,3.6-21.39-2.5-29.84,4.21-7.1,6.07-15.27,4.79-24.68Zm-130.11,352.92c-129.99,157.42-374.35,158.55-506.08,2.67-55.79-65-84.59-151.51-80.5-237.08.42-10.84,1.4-21.69,2.87-32.5,4.07,1.43,8.01,2.66,11.66,3.7,34.51,10.19,70,14.33,105.52,17.87,141.32,9.9,281.48,8.96,422.95,2.44,28.03-2.74,79.65-5.82,119.57-18.83,11.47,93.37-15.47,190.1-75.99,261.74Zm82.68-281.68c-40.91,12.91-84.32,15-127.51,17.29-34.82,1.69-69.82,2.16-104.86,2.37-70.04.31-140.47.58-210.5-.37-69.15-1.57-140.06-1.94-207.43-17.06-16.39-4.11-32.85-9.51-45.35-18.92-6.06-4.77-10.64-10.65-11.93-17.49-.43-3.34-.63-6.44-.88-9.52,1.36,1.4,2.81,2.79,4.4,4.14,50.57,38.29,154.18,40.79,216.49,45.16,121.78,3.92,243.35,5.05,365.03-2.21,33.91-3.27,123.44-7.96,157.21-40.1-.28,3.18-.47,6.37-.88,9.77-3.38,14.65-20.05,22.12-33.81,26.94Z"/>
      <g id="Oeuil_Droit" data-name="Oeuil Droit">
        <path class="cls-1" d="m903.66,290.72c0,58.47-47.4,105.87-105.87,105.87s-105.87-26.55-105.87-85.02,47.4-126.73,105.87-126.73,105.87,47.4,105.87,105.87Z"/>
      </g>
      <g id="Oeuil_Gauche" data-name="Oeuil Gauche">
        <path class="cls-1" d="m377.38,319.99c0,58.47-47.4,76.6-105.87,76.6s-105.87-47.4-105.87-105.87,47.4-105.87,105.87-105.87,105.87,76.67,105.87,135.15Z"/>
      </g>
      <path id="Sourcils" class="cls-3" d="m877.96,217.88c-41.98-38.44-100.73-56.97-157.09-53.58-64.96,3.43-77.23,76.37-126.04,107-30.64,19.1-70.94,19.47-103.37,4.23-47.02-21.65-66.03-74.77-108.33-100.95-13.56-8.08-28.81-11.23-44.68-10.86-48.61.09-97.58,16.14-136.21,45.95,37.26-32.89,86.44-51.61,135.97-54.51,16.89-1.43,35.07,1.45,50.3,9.55,44.01,22.92,65.93,73.77,110.77,94.07,26.59,11.82,60.67,11.87,85.96-3.14,49.8-31.59,62.66-98.93,135.11-100.9,57.92-.34,116.9,21.55,157.62,63.14h0Z"/>
    </g>
  </g>
</svg>