<svg xmlns="http://www.w3.org/2000/svg" viewBox="0 0 253.45 185.88"><defs><style>.cls-1{fill:#bea6a1;}.cls-2{fill:#991917;}.cls-3{font-size:30.9px;fill:#56423e;font-family:MongolianBaiti, Mongolian Baiti;}.cls-4{letter-spacing:0.17em;}</style></defs><g id="Calque_2" data-name="Calque 2"><g id="Tset_Mix_Logo" data-name="Tset Mix Logo"><g id="V12"><g id="Calque_20" data-name="Calque 20"><g id="Logo_Final_Couleur_1" data-name="Logo Final Couleur 1"><rect class="cls-1" width="253.45" height="185.88" rx="34.33"/><path class="cls-2" d="M81.15,80.93H36.71v29.14q0,7.26.92,9.59a6.36,6.36,0,0,0,3,3A13,13,0,0,0,47,124.38h3.46V127h-41v-2.61h3.38q5.93,0,8.61-3.45,1.69-2.27,1.69-10.86V48.35q0-7.34-.92-9.67a6.37,6.37,0,0,0-2.89-3A13.35,13.35,0,0,0,12.87,34H9.49V31.35h41V34H47a13.42,13.42,0,0,0-6.42,1.62,6.13,6.13,0,0,0-3,3.42c-.56,1.53-.85,4.65-.85,9.35V75.72H81.15"/><path class="cls-2" d="M127.55,87.17A24.61,24.61,0,0,1,120.1,94a13.81,13.81,0,0,1-10,1.67A19.57,19.57,0,0,0,106.5,99a25.34,25.34,0,0,0,21.29-1V87.07Z"/><path class="cls-2" d="M104,92.93a13.63,13.63,0,0,1-4.44-4.7,13.82,13.82,0,0,1-1.92-6.75A5.33,5.33,0,0,1,96,80.19a7.18,7.18,0,0,1-1.66-5q0-6.06,6.21-11.14a19.28,19.28,0,0,1,4.89-2.9L111.15,47q6.84-3.18,9.45-3.4a14.67,14.67,0,0,1,6.85.91q5.76,2.31,7.91,9.09a27.23,27.23,0,0,1,.81,11.69,15,15,0,0,1,2,3.39q1.28,3,1.27,12.42v7.51A46.62,46.62,0,0,0,147,75.68q5.55-13.87,1.61-25.48a20.43,20.43,0,0,0-12.23-13.1,18.61,18.61,0,0,0-11.13-.77q-5.4,1.19-12.36,6.31a35.44,35.44,0,0,1,2-4.56,11.65,11.65,0,0,1,3.1-3.17,9.79,9.79,0,0,1,4-1.13V31.17h-21v2.61a13.28,13.28,0,0,1,4.24.46,3.71,3.71,0,0,1,1.76,1.23,3.06,3.06,0,0,1,.49,1.9,14.87,14.87,0,0,1-1.2,5.72L91.91,78.78,76.19,46.19c-1.56-3.24-2.33-5.78-2.33-7.62a4.37,4.37,0,0,1,1.58-3.42,7.16,7.16,0,0,1,4.77-1.37h1.48V31.17H51.57v2.61a15.85,15.85,0,0,1,5.22,2,16,16,0,0,1,2.89,3.32,39.43,39.43,0,0,1,3.39,5.43l23.2,48.74-15,34.84q-2.55,6.27-5,8.46a7.33,7.33,0,0,1-4.62,2.19,15.29,15.29,0,0,1-3.52-1.06,19.18,19.18,0,0,0-6.35-1.55,7.54,7.54,0,0,0-5.33,1.8,6.19,6.19,0,0,0-1.94,4.76,7.2,7.2,0,0,0,2.68,5.5,9.88,9.88,0,0,0,6.84,2.4q5.72,0,11.89-4.8t10-14.18L94.27,88.39a19.85,19.85,0,0,0,4,5.6,17.75,17.75,0,0,0,1.87,1.53A44.26,44.26,0,0,1,104,93Z"/><path class="cls-2" d="M127.55,87.17a43.48,43.48,0,0,0,5.37-9.88,48.75,48.75,0,0,0,3.25-11.88A12.84,12.84,0,0,0,132,62q-5.49-2.9-14.1-2.89a32.35,32.35,0,0,0-12.53,2.18L97.78,79.9a11.89,11.89,0,0,0-.11,1.69,5.84,5.84,0,0,0,2.54.54,5.69,5.69,0,0,0,4.34-1.76,7.06,7.06,0,0,0,1.66-5l-.14-4.09a7.2,7.2,0,0,1,2.68-5.5,10,10,0,0,1,7-2.4q5.86,0,8.92,3.6t3.07,13.26v2.54Q111.19,88.82,104,93a18.67,18.67,0,0,0,3.42,1.79,16.47,16.47,0,0,0,2.6.8,33.62,33.62,0,0,1,4-2.56A136.78,136.78,0,0,1,127.55,87.17Z"/><path class="cls-2" d="M144.79,117.47a3.82,3.82,0,0,1-2,.49,2.75,2.75,0,0,1-1.87-.7,4.79,4.79,0,0,1-1.17-2.79,102,102,0,0,1-.35-11.32V88.74a37,37,0,0,1-11.56,9.16l-.08,0v13.75q-8.75,7.05-14.1,7a9.2,9.2,0,0,1-7-3.35,12.08,12.08,0,0,1-3-8.43,12.5,12.5,0,0,1,2.4-7.4c.13-.19.28-.38.43-.57l-.43-.16a27.6,27.6,0,0,1-6-3.2,23.35,23.35,0,0,0-6.17,6.46,15.32,15.32,0,0,0-2.12,8.19q0,7.47,4.34,12.06a14.52,14.52,0,0,0,11,4.58,19.18,19.18,0,0,0,8.11-1.76q2.53-1.2,12.48-8.89c0,3.86.75,6.59,2.12,8.18a6.86,6.86,0,0,0,5.5,2.4c4.8,0,10.67-4.39,15.94-11.44v-4A63.31,63.31,0,0,1,144.79,117.47Z"/><path class="cls-2" d="M162.72,7.51V28.74h15.1v4.94l-15.1-.46v74.55c0,4.65.6,7.47,1.8,8.93a5.73,5.73,0,0,0,4.62,2.18,8.13,8.13,0,0,0,4.52-1.44,9.39,9.39,0,0,0,3.38-4.27h2.75q-2.46,6.92-7,10.4a15,15,0,0,1-9.31,3.49,12.61,12.61,0,0,1-6.35-1.79,10.84,10.84,0,0,1-4.58-5.15c-1-2.24-1.48-5.68-1.48-10.34V33.68H140.86V31.35a26.66,26.66,0,0,0,7.93-5.25A41.57,41.57,0,0,0,156,17.32a78.2,78.2,0,0,0,4.52-9.81Z"/><path class="cls-2" d="M197.57,36.3a7.1,7.1,0,0,1,7.12,7.13,7,7,0,0,1-2.08,5.07,6.82,6.82,0,0,1-5,2.12,7.16,7.16,0,1,1,0-14.32Z"/><path class="cls-2" d="M197.59,117.33Q189.3,108.27,189.3,93q0-16.33,8.27-25.58a14.6,14.6,0,0,0-3.76-4.47,15.06,15.06,0,0,0-9.45-3,19.43,19.43,0,0,0-9.17,2.43q-4.59,2.44-12.41,11v4.3q5.22-5.57,8.95-7.4a16.29,16.29,0,0,1,7.2-1.84,9.94,9.94,0,0,1,5.78,1.66,9.37,9.37,0,0,1,3.49,5q1.1,3.32,1.1,13.89v22.85a53.05,53.05,0,0,1-.22,6.63,7.27,7.27,0,0,1-2.46,4.06c-1.18.92-3.27,1.37-6.28,1.37h-1.48v2.54H210.6v-.87A26.93,26.93,0,0,1,197.59,117.33Z"/><path class="cls-2" d="M233.91,111.41a18,18,0,0,1-11,3.49q-9.52,0-16.58-8.19c-4.7-5.45-5.28-11.46-5.32-22.57h43q0-12-7-19.15t-17.84-7.16a27.75,27.75,0,0,0-21.34,9.28l-.23.27a24.05,24.05,0,0,1,2.1,5.06c.89,3,1.34,8.51,1.34,16.5v22.85c0,4.09.32,6.89,1,8.4a5.51,5.51,0,0,0,2.4,2.68c1.13.66,3.2,1,6.21,1v1.67a27,27,0,0,0,6.91.87,23,23,0,0,0,17.85-7.93,33.57,33.57,0,0,0,8.6-17.6l-2.18-1.41Q238.6,107.91,233.91,111.41Zm-29.2-44a14.56,14.56,0,0,1,10.48-4.55,13.21,13.21,0,0,1,7.3,2.26,14,14,0,0,1,5.25,6.21c.75,1.69,1.25,4.61,1.48,8.74H200.76C201.28,74.65,201.63,70.43,204.71,67.39Z"/><text class="cls-3" transform="translate(9.49 172.24) scale(1.08 1)">Hypathie<tspan class="cls-4" x="113.27" y="0"> </tspan><tspan x="126.17" y="0">Edition</tspan></text></g></g></g></g></g></svg>