<?xml version="1.0" encoding="UTF-8"?>
<svg id="Calque_2" data-name="Calque 2" xmlns="http://www.w3.org/2000/svg" viewBox="0 0 478.51 425.89">
  <defs>
    <style>
      .cls-1 {
        fill: #debea4;
        stroke-width: 0px;
      }
    </style>
  </defs>
  <g id="Calque_2-2" data-name="Calque 2">
    <g id="Calque_3" data-name="Calque 3">
      <path class="cls-1" d="M358.68,425.89l-78.11-78.45s84.91-74.38,146.72-98.83c33.28,71.32-14.94,121.58-14.94,121.58l-53.66,55.7Z"/>
      <path class="cls-1" d="M280.57,347.43l164.72-165.74C470.76,156.91,507.1,76.75,441.21,0l-160.64,161.66c-45.17,46.87-56.94,128.59,0,185.77Z"/>
      <path class="cls-1" d="M119.83,425.89l78.11-78.45s-84.91-74.38-146.72-98.83c-33.28,71.32,14.94,121.58,14.94,121.58l53.66,55.7Z"/>
      <path class="cls-1" d="M197.94,347.43L33.22,181.7C7.75,156.91-28.59,76.75,37.3,0l160.64,161.66c45.17,46.87,56.94,128.59,0,185.77Z"/>
    </g>
  </g>
</svg>