<?xml version="1.0" encoding="UTF-8"?>
<svg id="Calque_2" data-name="Calque 2" xmlns="http://www.w3.org/2000/svg" viewBox="0 0 478.51 578.39">
  <defs>
    <style>
      .cls-1 {
        fill: #000;
      }

      .cls-1, .cls-2 {
        stroke-width: 0px;
      }

      .cls-2 {
        fill: #debea4;
      }
    </style>
  </defs>
  <g id="Calque_2-2" data-name="Calque 2">
    <path class="cls-2" d="M358.68,425.89l-78.11-78.45s84.91-74.38,146.72-98.83c33.28,71.32-14.94,121.58-14.94,121.58l-53.66,55.7Z"/>
    <path class="cls-2" d="M280.57,347.43l164.72-165.74C470.76,156.91,507.1,76.75,441.21,0l-160.64,161.66c-45.17,46.87-56.94,128.59,0,185.77Z"/>
    <path class="cls-2" d="M119.83,425.89l78.11-78.45s-84.91-74.38-146.72-98.83c-33.28,71.32,14.94,121.58,14.94,121.58l53.66,55.7Z"/>
    <path class="cls-2" d="M197.94,347.43L33.22,181.7C7.75,156.91-28.59,76.75,37.3,0l160.64,161.66c45.17,46.87,56.94,128.59,0,185.77Z"/>
    <g>
      <path class="cls-1" d="M54.51,577.35v-52.61c0-15.06-7.79-22.5-20.77-22.5s-21.28,7.44-21.28,22.5v52.61H0v-123.21h12.46v47.41c6.23-6.92,14.19-10.38,23.88-10.38,19.38,0,30.63,12.29,30.63,31.49v54.68h-12.46Z"/>
      <path class="cls-1" d="M105.04,538.07c0,18.69,8.65,29.42,25.09,29.42,9.86,0,15.57-2.94,22.32-9.69l8.48,7.44c-8.65,8.65-16.79,13.15-31.15,13.15-22.67,0-37.2-13.5-37.2-43.61,0-27.69,13.32-43.61,34.96-43.61s34.96,15.75,34.96,41.36v5.54h-57.45ZM147.44,514.53c-3.63-7.79-10.73-12.8-19.9-12.8s-16.27,5.02-19.9,12.8c-2.08,4.5-2.25,7.27-2.6,14.19h45.17c-.52-6.92-.69-9.69-2.77-14.19Z"/>
      <path class="cls-1" d="M215.8,578.39c-14.54,0-25.78-3.29-34.96-12.29l8.31-8.31c6.58,6.92,15.92,9.86,26.48,9.86,14.19,0,22.67-5.02,22.67-15.06,0-7.61-4.15-11.59-14.19-12.46l-14.02-1.21c-16.61-1.38-25.44-8.65-25.44-22.84,0-15.57,12.98-24.92,31.32-24.92,12.29,0,22.84,2.94,30.63,9.17l-8.13,8.13c-6.06-4.67-13.84-6.75-22.67-6.75-12.46,0-19.04,5.19-19.04,14.02,0,7.61,4.67,11.42,15.23,12.46l13.32,1.21c14.88,1.38,25.09,6.92,25.09,23.01s-13.84,25.96-34.61,25.96Z"/>
      <path class="cls-1" d="M275.15,577.35v-75.62h-10.73v-9.52h10.73v-26.13h12.46v26.13h18.17v9.52h-18.17v75.62h-12.46Z"/>
      <path class="cls-1" d="M329.83,473.09h0c0-3.87,3.14-7.01,7.01-7.01h0c3.87,0,7.01,3.14,7.01,7.01h0c0,3.87-3.14,7.01-7.01,7.01h0c-3.87,0-7.01-3.14-7.01-7.01ZM330.53,577.35v-85.14h12.46v85.14h-12.46Z"/>
      <path class="cls-1" d="M373.44,473.09h0c0-3.87,3.14-7.01,7.01-7.01h0c3.87,0,7.01,3.14,7.01,7.01h0c0,3.87-3.14,7.01-7.01,7.01h0c-3.87,0-7.01-3.14-7.01-7.01ZM374.13,577.35v-85.14h12.46v85.14h-12.46Z"/>
      <path class="cls-1" d="M466.02,577.35v-8.13c-6.75,6.75-13.15,9.17-24.57,9.17s-18.17-2.08-24.05-7.79c-4.33-4.15-6.4-10.56-6.4-17.31,0-15.05,10.56-24.57,29.59-24.57h25.44v-8.13c0-12.29-6.06-18.69-21.8-18.69-10.73,0-16.27,2.77-21.46,9.86l-8.48-7.79c7.44-9.86,16.09-12.81,30.11-12.81,23.02,0,34.09,10.04,34.09,28.38v57.8h-12.46ZM466.02,538.07h-23.71c-12.81,0-19.21,5.02-19.21,15.06s6.06,14.54,19.73,14.54c7.09,0,13.32-.69,18.86-5.71,2.94-2.77,4.33-7.61,4.33-14.71v-9.17Z"/>
    </g>
  </g>
</svg>