<svg xmlns="http://www.w3.org/2000/svg" viewBox="0 0 460.37 343.38"><defs><style>.cls-1,.cls-2{fill:#fff;}.cls-2{font-size:60px;font-family:MongolianBaiti, Mongolian Baiti;}.cls-3{letter-spacing:0.24em;}</style></defs><g id="Calque_2" data-name="Calque 2"><g id="Tset_Mix_Logo" data-name="Tset Mix Logo"><g id="V12"><g id="Noir_Blanc" data-name="Noir &amp; Blanc"><g id="B"><path class="cls-1" d="M140.7,144.16H53.46v57.19q0,14.27,1.8,18.84c.92,2.3,2.86,4.29,5.81,5.95a25.42,25.42,0,0,0,12.6,3.32h6.79v5.13H0v-5.13H6.65q11.62,0,16.89-6.78,3.33-4.44,3.33-21.33V80.18q0-14.42-1.8-19a12.5,12.5,0,0,0-5.68-6A26.22,26.22,0,0,0,6.65,51.93H0V46.8H80.46v5.13H73.67a26.26,26.26,0,0,0-12.6,3.18,12,12,0,0,0-6,6.72q-1.66,4.5-1.66,18.35v53.73H140.7"/><path class="cls-1" d="M231.8,156.4a48.35,48.35,0,0,1-14.63,13.34A27.1,27.1,0,0,1,197.45,173a37.49,37.49,0,0,0-7,6.61q21.36,8.17,41.81-2.07V156.21Z"/><path class="cls-1" d="M185.62,167.71a26.69,26.69,0,0,1-8.7-9.23,27.08,27.08,0,0,1-3.78-13.25,10.71,10.71,0,0,1-3.39-2.54q-3.24-3.6-3.25-9.83,0-11.91,12.19-21.88a38.24,38.24,0,0,1,9.6-5.69l11.32-27.74q13.42-6.26,18.54-6.68a28.54,28.54,0,0,1,13.45,1.8q11.31,4.53,15.54,17.85a53.54,53.54,0,0,1,1.59,22.94,28.83,28.83,0,0,1,3.91,6.66q2.49,6,2.49,24.37v14.77a91.14,91.14,0,0,0,14.94-25.41q10.9-27.27,3.17-50-6.28-18.63-24-25.72a36.59,36.59,0,0,0-21.85-1.51Q216.75,58.92,203.1,69a72.78,72.78,0,0,1,4-8.94,23,23,0,0,1,6.1-6.24,19.68,19.68,0,0,1,7.89-2.21V46.44H179.84v5.13q6,0,8.31.9a7.36,7.36,0,0,1,3.46,2.42,6,6,0,0,1,1,3.74,29.15,29.15,0,0,1-2.35,11.22l-28.39,70.07L131,75.94q-4.58-9.56-4.57-15a8.5,8.5,0,0,1,3.11-6.71q3.12-2.7,9.35-2.7h2.91V46.44H82.62v5.13q7.06,1.66,10.25,3.88A31,31,0,0,1,98.55,62a77.18,77.18,0,0,1,6.65,10.67l45.56,95.69-29.37,68.41q-5,12.33-9.9,16.62c-3.27,2.85-6.3,4.29-9.07,4.29q-1.38,0-6.92-2.08-7.91-3-12.47-3.05-6.65,0-10.45,3.54a12.13,12.13,0,0,0-3.81,9.34q0,6.11,5.26,10.81t13.43,4.7q11.22,0,23.34-9.41t19.59-27.84l36.06-84.84a33.93,33.93,0,0,0,11.48,14,85.14,85.14,0,0,1,7.61-5Z"/><path class="cls-1" d="M231.8,156.4A84.62,84.62,0,0,0,242.35,137a96.47,96.47,0,0,0,6.38-23.32,25.09,25.09,0,0,0-8.14-6.78q-10.8-5.67-27.7-5.67-14.4,0-24.6,4.28l-14.94,36.61a23.09,23.09,0,0,0-.21,3.33,11.59,11.59,0,0,0,5,1.06,11.18,11.18,0,0,0,8.52-3.46q3.25-3.47,3.25-9.83l-.27-8q0-6.09,5.26-10.8t13.85-4.71q11.49,0,17.52,7.07t6,26v5q-32.59,11.88-46.66,20.17a36.55,36.55,0,0,0,6.71,3.5,32.28,32.28,0,0,0,5.12,1.58,67.66,67.66,0,0,1,7.83-5Q211.3,164.56,231.8,156.4Z"/><path class="cls-1" d="M265.66,215.89a7.55,7.55,0,0,1-3.88,1,5.43,5.43,0,0,1-3.67-1.38c-1.06-.92-1.82-2.75-2.29-5.47s-.69-10.13-.69-22.23V159.47a72.73,72.73,0,0,1-22.71,18l-.14.07v27q-17.17,13.85-27.7,13.85-7.76,0-13.71-6.58t-6-16.55a24.62,24.62,0,0,1,4.71-14.54c.26-.37.55-.74.84-1.1l-.84-.32a54.51,54.51,0,0,1-11.7-6.28,45.77,45.77,0,0,0-12.12,12.68,30.16,30.16,0,0,0-4.16,16.07q0,14.67,8.52,23.68t21.67,9A37.61,37.61,0,0,0,207.77,231q5-2.36,24.51-17.45.14,11.36,4.15,16.06a13.48,13.48,0,0,0,10.81,4.71c9.41,0,20.95-8.62,31.29-22.47v-7.76C273,209.62,267.59,214.7,265.66,215.89Z"/><path class="cls-1" d="M300.87,0V41.68H330.5v9.7l-29.63-.91V196.85c0,9.12,1.17,14.66,3.53,17.52a11.22,11.22,0,0,0,9.07,4.29,15.89,15.89,0,0,0,8.86-2.84,18.25,18.25,0,0,0,6.65-8.37h5.4q-4.85,13.58-13.71,20.42t-18.28,6.86a24.65,24.65,0,0,1-12.47-3.53,21.42,21.42,0,0,1-9-10.11Q278,214.51,278,200.8V51.38H257.93V46.81a52.51,52.51,0,0,0,15.58-10.32,81.87,81.87,0,0,0,14.2-17.24Q290.89,14,296.57,0Z"/><path class="cls-1" d="M369.27,56.52a13.95,13.95,0,0,1,14,14,13.72,13.72,0,0,1-4.08,10,13.4,13.4,0,0,1-9.91,4.16,14.19,14.19,0,0,1-14.12-14.13,13.48,13.48,0,0,1,4.08-9.9A13.68,13.68,0,0,1,369.27,56.52Z"/><path class="cls-1" d="M369.32,215.62Q353,197.82,353.05,167.77q0-32.09,16.23-50.23a28.64,28.64,0,0,0-7.38-8.77,29.62,29.62,0,0,0-18.56-6,38,38,0,0,0-18,4.78q-9,4.77-24.37,21.67v8.45q10.25-10.93,17.59-14.54a31.89,31.89,0,0,1,14.12-3.6A19.49,19.49,0,0,1,344,122.83a18.42,18.42,0,0,1,6.85,9.76Q353,139.1,353,159.88v44.86q0,10.81-.42,13a14.36,14.36,0,0,1-4.84,8q-3.46,2.7-12.33,2.7h-2.91v5h62.32v-1.72Q380.54,227.86,369.32,215.62Z"/><path class="cls-1" d="M440.64,204A35.28,35.28,0,0,1,419,210.84q-18.71,0-32.55-16.07c-9.23-10.71-10.36-22.5-10.44-44.31h84.39q0-23.55-13.71-37.6t-35-14.06q-25.22,0-41.89,18.21c-.16.17-.31.36-.46.53a47,47,0,0,1,4.12,9.93q2.63,8.86,2.63,32.41v44.86q0,12.06,1.94,16.48a10.84,10.84,0,0,0,4.7,5.27q3.33,1.94,12.19,1.94v3.26a52.54,52.54,0,0,0,13.58,1.72q21.06,0,35-15.58t16.89-34.55l-4.29-2.77Q449.86,197.13,440.64,204Zm-57.33-86.41q9.06-8.94,20.56-8.93a26,26,0,0,1,14.34,4.43,27.39,27.39,0,0,1,10.31,12.18q2.22,5,2.91,17.18H375.55C376.57,131.81,377.26,123.52,383.31,117.57Z"/><text class="cls-2" transform="translate(0.12 330.32) scale(1.08 1)">Hypathie<tspan class="cls-3" x="219.93" y="0"> </tspan><tspan x="249.6" y="0">Edition</tspan></text></g></g></g></g></g></svg>