<?xml version="1.0" encoding="UTF-8"?><svg xmlns="http://www.w3.org/2000/svg" viewBox="0 0 573.59 709.42"><defs><style>.d,.e,.f{fill:none;stroke:#fff;stroke-width:2px;}.d,.f{stroke-linejoin:round;}.e{stroke-miterlimit:10;}.f{stroke-linecap:round;}</style></defs><g id="a"/><g id="b"><g id="c"><polyline class="f" points="292.35 291.82 294.5 305.21 292.35 331.73 277.08 341.11 269.58 361.74 259.13 367.37 254.13 383.08 243.95 390.76"/><polyline class="f" points="16.4 699.57 57.66 690.2 122.76 659.12 156.79 622.19 175.81 575.53 193.94 521.15 205.68 461.8 213.41 399.65 217.33 358.3 221.44 315.04 223.14 281.17 225.68 245.08 229.27 198.99 231.41 171.21 231.99 134.65 232.67 101.25 233.01 68.17 235.02 44.09 238.23 23.73"/><polyline class="f" points="1 692.88 16.4 699.57 30.34 708.42"/><path class="f" d="M268.64,33.1l-3.08,30.82-2.41,25-4.02,54.21-1.96,41.27-5.29,68.21-1.57,39.21-3.51,46.62-2.86,52.33-21.61,78.23-13.75,57.69-16.97,54.21s-22.5,47.96-23.31,48.76-34.02,37.24-34.02,37.24l-68.52,32.84-35.43,8.69"/><polyline class="f" points="206.08 23.73 207.02 20.96 207.02 12.25 228.59 3.28 248.41 1 266.9 9.04 285.92 23.1 280.83 35.69 279.63 38.64"/><polyline class="f" points="304.85 270.74 302 341.11 303.36 360.31 309.06 373.21 328.25 375.67 369.27 354.78 425.5 323.21 495.43 253.77 557.85 194.3 572.59 146.88 570.71 94.37 522.49 51.77 472.39 23.73 434.52 8.19 374.87 10.69 285.92 23.1"/><polyline class="f" points="65.77 699.73 57.66 690.2 52.3 677.61"/><polyline class="f" points="134.29 666.89 122.76 659.12 114.46 648.14"/><polyline class="f" points="168.31 629.65 156.79 622.19 139.82 614.74"/><polyline class="f" points="156.79 572.05 175.81 575.53 191.62 580.89"/><polyline class="f" points="173.4 517.93 193.94 521.15 208.59 526.68"/><polyline class="f" points="184.65 457.92 205.68 461.8 222.34 468.99"/><polyline class="f" points="186.78 399.65 213.41 399.65 237.9 412.12"/><polyline class="f" points="190.01 311.11 221.44 315.04 247.11 334.39 259.13 367.37 266.28 320.39 269.22 289.14 269.22 264.76 269.22 228.05 275.74 210.1 279.76 180.59 291.15 166.3 301.86 144.2 301.73 125.44 285.92 105.22 263.15 88.92 233.01 68.17 197.95 66.36"/><polyline class="f" points="192.95 195.76 229.27 198.99 254.87 215.48 269.22 228.05 281.46 233.41 294.43 241.47 301.86 255.2 304.85 270.74"/><polygon class="f" points="283.51 198.99 287.26 185.99 298 182.37 292.22 192.96 283.51 198.99"/><polyline class="f" points="287.4 214.21 281.1 209.93 277.15 203.16"/><polyline class="f" points="279.76 180.59 301.86 172.6 309.1 181.44"/><polyline class="f" points="330.93 161.79 317.94 149.54 301.86 144.2 285.92 126.96 261.23 114.77 232.67 101.25 196.52 99.65"/><polyline class="f" points="334.15 181.08 317.27 169.38 304.85 163.84 291.15 166.3 277.88 155.58 258.67 151.84 231.99 134.65 195.48 127.04"/><polyline class="f" points="334.15 137.86 319.41 128.39 301.73 125.44 310.08 103.94 326.82 91.78 352.77 62.22 387.57 44.57"/><path class="f" d="M201.26,43.2l-3.31,23.16-1.43,33.29-1.04,27.39-1.28,31.57-1.25,37.15-1.29,45.71-.88,36.95-.78,32.69-1.59,43.68-1.64,44.87-2.13,58.27-11.25,60.01-16.61,54.12-16.97,42.69s-24.84,32.62-25.36,33.4c-1.07,1.61-62.16,29.47-62.16,29.47l-51.3,15.27"/><polygon class="f" points="206.08 23.73 238.23 23.73 268.64 33.1 279.63 38.64 291.82 44.8 303.07 68.38 326.82 91.78 329.86 121.78 334.15 137.86 330.93 161.79 334.15 181.08 326.47 225.22 304.85 270.74 292.35 291.82 286.19 271.99 279.76 262.88 294.43 241.47 310.03 210.37 317.27 169.38 317.94 149.54 319.41 128.39 310.08 103.94 299.99 90.53 287.8 76.55 265.56 63.91 235.02 44.09 201.26 43.2 206.08 23.73"/><polyline class="f" points="522.49 51.77 491.2 53.53 450.95 55.79 399.65 78.16 355.44 83.52"/><polyline class="f" points="277.88 155.58 257.17 177.51 279.76 180.59 277.88 155.58 285.92 126.96 285.92 105.22 287.8 76.55 291.82 44.8 343.25 32.48 399.69 27.3"/><path class="f" d="M191.66,241.47s34.02,3.61,34.02,3.61l25.81,12.09,17.73,7.58,10.54-1.88,2.23,23.58v13.22l-2.23,30.18-2.68,11.25,5.89,15.2,5.8,11.78,4.64,9.63,5.89,11.07,2.55,3.75,4.29,8.57"/><polyline class="f" points="292.35 331.73 279.76 329.86 266.28 320.39 250.32 291.82 223.14 281.17 190.79 278.42"/><polyline class="f" points="292.35 291.82 281.99 286.46 269.22 289.14 250.32 291.82 267.91 303.05 281.99 299.67 294.5 305.21"/><polyline class="d" points="286.94 335.06 291.83 346.57 296.82 358.3 299.76 366.06 302.8 374.07 305.75 381.83 309.86 394.69 306.15 401.12 295.75 399.65 288.42 388.98 285.51 383.6 281.21 375.67 275.74 365.58 271.82 355.58"/><polyline class="e" points="309.86 394.69 301.86 392.55 295.75 399.65"/><polyline class="e" points="305.75 381.83 299.32 388.8 288.42 388.98"/><polyline class="e" points="275.74 365.58 282.97 356.31 296.82 358.3"/><line class="e" x1="277.08" y1="341.11" x2="291.83" y2="346.57"/><polyline class="e" points="281.21 375.67 288.78 368.09 299.76 366.06"/><polyline class="e" points="302.8 374.07 293.42 377.73 285.51 383.6"/><polyline class="f" points="279.76 262.88 281.46 233.41 287.4 214.21 299.99 200.55 309.1 181.44 317.27 169.38 320.75 215.91"/><line class="f" x1="287.26" y1="185.99" x2="279.76" y2="180.59"/><polyline class="f" points="298 182.37 301.86 172.6 304.85 163.84"/><line class="f" x1="283.51" y1="198.99" x2="281.1" y2="209.93"/><polyline class="f" points="317.94 149.54 304.85 163.84 301.86 144.2"/><polyline class="f" points="302 341.11 328.43 313.26 357.86 277.92 388.39 221.21 404.18 163.84 404.65 120.52 399.65 78.16 372.37 63.91 355.44 83.52 329.86 121.78"/><polyline class="f" points="309.06 373.21 303.36 360.31 347.61 321.76"/><polyline class="f" points="495.43 253.77 476.03 230.59 454.17 204.46 336.29 234.48 326.47 225.22 320.75 215.91 310.03 210.37 299.99 200.55 292.22 192.96"/><polyline class="f" points="557.85 194.3 531.39 172.6 493.82 141.79 334.15 181.08 320.75 215.91 301.86 255.2 286.19 271.99"/><polyline class="f" points="572.59 146.88 533.2 144.33 493.82 141.79"/><polyline class="f" points="570.71 94.37 528.49 97.11 489.53 99.65 334.15 137.86"/><polyline class="f" points="352.77 62.22 340.84 50.43 343.25 32.48 374.87 10.69"/><polyline class="f" points="434.52 8.19 399.69 27.3 387.57 44.57 372.37 63.91"/><line class="f" x1="352.77" y1="62.22" x2="355.44" y2="83.52"/><polyline class="f" points="207.02 20.96 239.4 20.42 269.48 30.01 280.83 35.69"/><polyline class="f" points="238.23 23.73 239.4 20.42 248.41 1"/><polyline class="f" points="268.64 33.1 269.48 30.01 266.9 9.04"/><polyline class="f" points="304.85 270.74 317.94 284.31 402.73 270.74 414.98 298.95 425.5 323.21"/><polyline class="f" points="399.69 27.3 491.2 53.53 533.2 96.81 533.2 144.33 531.39 172.6 476.03 230.59 414.98 298.95 359.56 337.81 309.06 373.21"/><polyline class="f" points="369.27 354.78 359.56 337.81 347.61 321.76 328.43 313.26 303.13 313.26 317.94 284.31 336.29 234.48 334.15 181.08"/><path class="f" d="M194.2,158.61c1.03,0,36.71,7.11,36.71,7.11l26.26,11.79"/><polyline class="f" points="188.42 354.78 217.33 358.3 243.95 390.76"/><path class="f" d="M285.92,105.22l14.07-14.69,3.08-22.15s36.17-17.68,37.78-17.95,46.72-5.86,46.72-5.86l63.39,11.22,38.58,43.86,4.29,42.14-39.65,62.67-51.44,66.28-55.12,51.02"/></g></g></svg>