<?xml version="1.0" encoding="utf-8"?>
<!-- Generator: Adobe Illustrator 28.0.0, SVG Export Plug-In . SVG Version: 6.00 Build 0)  -->
<svg version="1.1" id="Calque_2_00000174559571900195399780000009311072910702476470_"
	 xmlns="http://www.w3.org/2000/svg" xmlns:xlink="http://www.w3.org/1999/xlink" x="0px" y="0px" viewBox="0 0 50 50"
	 style="enable-background:new 0 0 50 50;" xml:space="preserve">
<style type="text/css">
	.st0{fill:#FFFFFF;}
	.st1{fill:#5EB030;}
</style>
<g id="Frog_Studio_Website_Logo">
	<circle id="BG_Cercle" class="st0" cx="25" cy="25" r="25"/>
	<g>
		<path id="Bas_du_visage" class="st1" d="M42.8,19.6c-0.2-1.2-0.9-2.3-1.8-3.4c-0.1,0.1-0.2,0.2-0.2,0.3c0.5,0.6,0.9,1.3,1.2,2
			c0.2,0.6,0.5,1.5,0,2.1c-2.2,2.2-13.5,1.5-17.1,1.6C21.5,22.1,9.5,22.7,8,20l0-0.1l0-0.1c0-0.1-0.1-0.2-0.1-0.3
			c0-1,0.5-1.9,1.2-2.7c-0.1-0.1-0.2-0.2-0.3-0.3C8,17.2,7.5,18,7.3,18.9c-0.1,0.6-0.1,1.1,0.1,1.5c-0.1,0.1-0.1,0.2-0.2,0.3
			c-0.4,1.4,1,2.3,2.3,2.8c-0.3,1.1-0.4,2.2-0.4,3.3c-0.2,11.9,12.4,19.6,23,14.4c6.4-3.1,10.1-10.5,8.4-17.4c1-0.4,1.8-0.9,2.2-1.6
			c0.2-0.5,0.2-1-0.1-1.4C42.7,20.4,42.8,20,42.8,19.6L42.8,19.6z M36.8,35.9c-6,7.3-17.3,7.3-23.4,0.1c-2.6-3-3.9-7-3.7-11
			c0-0.5,0.1-1,0.1-1.5c0.2,0.1,0.4,0.1,0.5,0.2c1.6,0.5,3.2,0.7,4.9,0.8c6.5,0.5,13,0.4,19.6,0.1c1.3-0.1,3.7-0.3,5.5-0.9
			C40.8,28.1,39.6,32.6,36.8,35.9L36.8,35.9z M40.6,22.9c-1.9,0.6-3.9,0.7-5.9,0.8c-1.6,0.1-3.2,0.1-4.9,0.1c-3.2,0-6.5,0-9.7,0
			c-3.2-0.1-6.5-0.1-9.6-0.8c-0.8-0.2-1.5-0.4-2.1-0.9c-0.3-0.2-0.5-0.5-0.6-0.8c0-0.2,0-0.3,0-0.4C7.8,20.9,7.9,21,8,21.1
			c2.3,1.8,7.1,1.9,10,2.1c5.6,0.2,11.3,0.2,16.9-0.1c1.6-0.2,5.7-0.4,7.3-1.9c0,0.1,0,0.3,0,0.5C42,22.3,41.2,22.7,40.6,22.9
			L40.6,22.9z"/>
		<g id="Oeuil_Droit">
			<path d="M41.8,13.5c0,2.7-2.2,4.9-4.9,4.9c-2.7,0-4.9-1.2-4.9-3.9s2.2-5.9,4.9-5.9C39.6,8.6,41.8,10.7,41.8,13.5L41.8,13.5z"/>
		</g>
		<g id="Oeuil_Gauche">
			<path d="M17.5,14.8c0,2.7-2.2,3.5-4.9,3.5s-4.9-2.2-4.9-4.9s2.2-4.9,4.9-4.9S17.5,12.1,17.5,14.8L17.5,14.8z"/>
		</g>
		<path id="Sourcils" class="st1" d="M40.6,10.1c-1.9-1.8-4.7-2.6-7.3-2.5c-3,0.2-3.6,3.5-5.8,5c-1.4,0.9-3.3,0.9-4.8,0.2
			c-2.2-1-3.1-3.5-5-4.7c-0.6-0.4-1.3-0.5-2.1-0.5c-2.3,0-4.5,0.7-6.3,2.1c1.7-1.5,4-2.4,6.3-2.5c0.8-0.1,1.6,0.1,2.3,0.4
			C20,8.7,21,11,23.1,12c1.2,0.5,2.8,0.5,4-0.1c2.3-1.5,2.9-4.6,6.3-4.7C36,7.1,38.8,8.2,40.6,10.1L40.6,10.1L40.6,10.1z"/>
	</g>
</g>
</svg>
