<?xml version="1.0" encoding="UTF-8"?>
<svg id="Calque_2" data-name="Calque 2" xmlns="http://www.w3.org/2000/svg" viewBox="0 0 521.32 521.28">
  <defs>
    <style>
      .cls-1 {
        fill: #0a66c2;
        stroke-width: 0px;
      }
    </style>
  </defs>
  <g id="Calque_1-2" data-name="Calque 1">
    <path class="cls-1" d="m444.19,444.19h-77.24v-121c0-28.85-.52-66-40.18-66s-46.39,31.43-46.39,63.88v123.11h-77.24v-248.76h74.15v34h1c15.12-25.85,43.24-41.29,73.17-40.18,78.29,0,92.73,51.5,92.73,118.49v136.46ZM115.98,161.41c-24.76,0-44.83-20.06-44.84-44.82,0-24.76,20.06-44.83,44.82-44.84,24.76,0,44.83,20.06,44.84,44.82h0c0,24.77-20.06,44.83-44.82,44.84h0m38.62,282.77h-77.32v-248.76h77.33v248.76ZM482.66.03H38.46C17.47-.22.26,16.58,0,37.57c0,.03,0,.06,0,.08v446c.25,21.01,17.46,37.84,38.47,37.62h444.19c21.06.28,38.37-16.56,38.66-37.62V37.57C521.02,16.52,503.71-.3,482.66,0"/>
  </g>
</svg>