<?xml version="1.0" encoding="UTF-8"?>
<svg id="Calque_2" data-name="Calque 2" xmlns="http://www.w3.org/2000/svg" viewBox="0 0 2434.72 2434.72">
  <defs>
    <style>
      .cls-1 {
        fill: #fff;
      }

      .cls-1, .cls-2 {
        stroke-width: 0px;
      }

      .cls-2 {
        fill: #ca2127;
      }
    </style>
  </defs>
  <g id="Calque_1-2" data-name="Calque 1">
    <path class="cls-2" d="m2434.72,1217.36c0,672.22-545.14,1217.36-1217.36,1217.36S0,1889.58,0,1217.36C0,545.14,545.14,0,1217.36,0s1217.36,545.14,1217.36,1217.36Z"/>
    <path class="cls-1" d="m1115.28,407.64c-343.06,36.81-684.72,300.69-698.61,678.47-9.03,230.56,87.5,403.47,318.06,452.08,26.39-109.03,31.25-168.06,31.25-168.06,0,0-101.39-97.22-111.81-159.03-84.72-497.22,602.08-836.81,962.5-489.58,248.61,240.97,84.72,981.94-316.67,904.86-384.72-73.61,188.19-663.19-118.75-779.17-249.31-94.44-381.94,288.19-263.89,477.78-69.44,326.39-218.75,634.03-158.33,1043.06,196.53-135.42,262.5-395.14,316.67-665.97,98.61,56.94,151.39,116.67,277.08,125.69,463.89,34.03,722.92-440.97,659.72-879.86-56.94-388.89-463.89-586.81-897.22-540.28h0Z"/>
  </g>
</svg>